<?xml version="1.0" standalone="no"?><!DOCTYPE svg PUBLIC "-//W3C//DTD SVG 1.1//EN" "http://www.w3.org/Graphics/SVG/1.1/DTD/svg11.dtd"><svg t="1767337895530" class="icon" viewBox="0 0 1024 1024" version="1.1" xmlns="http://www.w3.org/2000/svg" p-id="4246" xmlns:xlink="http://www.w3.org/1999/xlink" width="32" height="32"><path d="M721.454545 209.454545v93.09091h93.09091V209.454545h-93.09091z" p-id="4247" data-spm-anchor-id="a313x.search_index.0.i14.683b3a81HZzNyy" class="" fill="#ffffff"></path><path d="M139.636364 46.545455a93.090909 93.090909 0 0 0-93.090909 93.090909v232.727272a93.090909 93.090909 0 0 0 93.090909 93.090909h744.727272a93.090909 93.090909 0 0 0 93.090909-93.090909V139.636364a93.090909 93.090909 0 0 0-93.090909-93.090909H139.636364z m0 93.090909h744.727272v232.727272H139.636364V139.636364zM721.454545 814.545455v-93.09091h93.09091v93.09091h-93.09091z" p-id="4248" data-spm-anchor-id="a313x.search_index.0.i13.683b3a81HZzNyy" class="" fill="#ffffff"></path><path d="M139.636364 558.545455a93.090909 93.090909 0 0 0-93.090909 93.090909v232.727272a93.090909 93.090909 0 0 0 93.090909 93.090909h744.727272a93.090909 93.090909 0 0 0 93.090909-93.090909V651.636364a93.090909 93.090909 0 0 0-93.090909-93.090909H139.636364z m0 93.090909h744.727272v232.727272H139.636364V651.636364z" p-id="4249" data-spm-anchor-id="a313x.search_index.0.i15.683b3a81HZzNyy" class="" fill="#ffffff"></path></svg>