<?xml version="1.0" standalone="no"?><!DOCTYPE svg PUBLIC "-//W3C//DTD SVG 1.1//EN" "http://www.w3.org/Graphics/SVG/1.1/DTD/svg11.dtd"><svg t="1767338284134" class="icon" viewBox="0 0 1024 1024" version="1.1" xmlns="http://www.w3.org/2000/svg" p-id="22899" xmlns:xlink="http://www.w3.org/1999/xlink" width="32" height="32"><path d="M411.273366 414.09561V146.906537a67.159415 67.159415 0 0 0-67.034537-67.184391H141.961366A67.059512 67.059512 0 0 0 74.926829 146.856585v200.129561a67.18439 67.18439 0 0 0 67.034537 67.084488h273.932488-4.620488zM7.667512 146.856585A134.318829 134.318829 0 0 1 141.961366 12.487805h202.277463a134.418732 134.418732 0 0 1 134.293854 134.443707v334.423415H141.961366a134.443707 134.443707 0 0 1-134.293854-134.368781V146.856585zM608.830439 414.09561h273.408a67.084488 67.084488 0 0 0 67.18439-67.109464V146.856585a67.18439 67.18439 0 0 0-67.059512-67.109463h-202.252488a67.18439 67.18439 0 0 0-67.034536 67.384195V414.09561h-4.245854zM545.792 147.106341C545.792 72.778927 605.908293 12.487805 680.110829 12.487805h202.252488a134.443707 134.443707 0 0 1 134.318829 134.36878v200.129561a134.36878 134.36878 0 0 1-134.443707 134.368781h-336.421463V147.106341zM411.273366 615.598829v267.139122a67.159415 67.159415 0 0 1-67.034537 67.18439H141.961366A67.059512 67.059512 0 0 1 74.926829 882.837854v-200.154537a67.18439 67.18439 0 0 1 67.034537-67.084488h273.932488-4.620488z m-403.605854 267.239025a134.318829 134.318829 0 0 0 134.293854 134.36878h202.277463a134.418732 134.418732 0 0 0 134.293854-134.468683v-334.423414H141.961366a134.443707 134.443707 0 0 0-134.293854 134.36878v200.154537zM608.830439 615.598829h273.408a67.084488 67.084488 0 0 1 67.18439 67.084488v200.154537a67.18439 67.18439 0 0 1-67.059512 67.084487h-202.252488a67.18439 67.18439 0 0 1-67.034536-67.384195V615.598829h-4.245854z m-63.038439 266.939317c0 74.377366 60.116293 134.643512 134.318829 134.643513h202.252488a134.443707 134.443707 0 0 0 134.318829-134.368781v-200.129561a134.36878 134.36878 0 0 0-134.443707-134.36878h-336.421463v334.223609z" fill="#ffffff" p-id="22900" data-spm-anchor-id="a313x.search_index.0.i33.683b3a81HZzNyy" class=""></path></svg>