<?xml version="1.0" standalone="no"?><!DOCTYPE svg PUBLIC "-//W3C//DTD SVG 1.1//EN" "http://www.w3.org/Graphics/SVG/1.1/DTD/svg11.dtd"><svg t="1767338224735" class="icon" viewBox="0 0 1024 1024" version="1.1" xmlns="http://www.w3.org/2000/svg" p-id="20027" xmlns:xlink="http://www.w3.org/1999/xlink" width="32" height="32"><path d="M308.736 639.872c31.893333 29.973333 34.773333 81.6 6.464 115.264a75.157333 75.157333 0 0 1-57.749333 27.498667c-18.773333 0-37.034667-7.168-51.306667-20.608l-166.4-156.458667c-48.874667-45.930667-53.269333-125.056-9.834667-176.746667a122.026667 122.026667 0 0 1 9.813334-10.389333l179.84-169.088c31.872-29.866667 80.661333-26.88 108.970666 6.826667 28.352 33.728 25.472 85.354667-6.4 115.328L172.693333 512l136.042667 127.872z m459.392 155.349333A75.114667 75.114667 0 0 1 710.4 767.786667c-28.330667-33.706667-25.472-85.333333 6.421333-115.328L866.261333 512l-136.042666-127.893333c-31.893333-29.973333-34.773333-81.6-6.442667-115.306667 28.288-33.770667 77.12-36.8 109.013333-6.826667l141.546667 133.077334c4.330667 4.053333 8.426667 8.405333 12.288 12.992 54.293333 64.576 48.789333 163.498667-12.288 220.928L819.413333 774.613333c-14.293333 13.44-32.533333 20.608-51.285333 20.608zM460.266667 896a74.88 74.88 0 0 1-12.736-1.066667c-42.090667-7.466667-70.506667-49.536-63.488-94.016l95.274666-604.522666c6.890667-44.608 46.72-74.752 88.874667-67.242667 42.069333 7.424 70.506667 49.493333 63.466667 93.994667l-95.274667 604.629333c-6.186667 39.466667-38.613333 68.224-76.117333 68.224z" fill="#ffffff" p-id="20028" data-spm-anchor-id="a313x.search_index.0.i31.683b3a81HZzNyy" class=""></path></svg>